<?xml version="1.0" standalone="no"?>
<!DOCTYPE svg PUBLIC "-//W3C//DTD SVG 20010904//EN"
 "http://www.w3.org/TR/2001/REC-SVG-20010904/DTD/svg10.dtd">
<svg version="1.0" xmlns="http://www.w3.org/2000/svg"
 width="512.000000pt" height="512.000000pt" viewBox="0 0 512.000000 512.000000"
 preserveAspectRatio="xMidYMid meet">
<metadata>
Created by potrace 1.14, written by Peter Selinger 2001-2017
</metadata>
<g transform="translate(0.000000,512.000000) scale(0.100000,-0.100000)"
fill="#000000" stroke="none">
<path d="M3211 4876 c-48 -17 -105 -69 -126 -113 -10 -21 -18 -39 -19 -40 -1
-1 -20 4 -41 12 -158 56 -324 -76 -302 -240 9 -64 31 -100 104 -176 l64 -66
-28 -19 c-27 -18 -76 -19 -1381 -24 l-1354 -5 -24 -28 -24 -28 0 -860 0 -860
25 -24 24 -25 1094 0 1095 0 42 -72 c60 -102 230 -268 334 -328 110 -62 231
-108 345 -133 125 -26 366 -28 486 -2 296 62 526 213 675 441 28 43 53 80 54
81 1 1 27 -7 57 -19 79 -32 277 -32 364 0 245 91 396 344 357 599 -23 149
-115 292 -244 377 -79 53 -158 77 -268 83 -113 6 -191 -10 -289 -62 -35 -19
-65 -34 -66 -32 -1 1 -25 37 -54 79 -57 86 -215 286 -310 392 l-61 70 29 30
c100 104 74 283 -51 347 l-41 21 71 71 c85 87 105 124 106 198 2 167 -166 273
-325 205 -13 -6 -22 4 -39 39 -48 99 -173 149 -279 111z m102 -155 c15 -6 30
-25 41 -55 21 -54 61 -91 118 -108 36 -11 48 -9 101 10 60 22 89 19 109 -12
24 -35 7 -62 -107 -176 l-115 -115 -173 -3 -172 -4 -117 120 c-127 128 -136
145 -93 187 29 30 36 31 101 4 90 -38 169 -5 209 86 21 47 45 74 67 75 4 0 17
-4 31 -9z m-566 -723 c6 -24 14 -51 18 -60 7 -17 -48 -18 -1066 -18 -842 0
-1079 -3 -1099 -13 -13 -7 -29 -26 -34 -42 -35 -119 -47 -134 -126 -149 -19
-3 -44 -16 -57 -28 l-23 -21 0 -374 0 -374 23 -23 c13 -13 42 -26 66 -30 58
-9 97 -49 106 -109 5 -29 16 -54 32 -69 l25 -23 812 -3 812 -2 10 -60 10 -60
-1008 0 -1008 0 0 750 0 750 1248 0 1249 0 10 -42z m915 -304 c135 -152 234
-276 317 -399 l69 -100 -29 -50 c-53 -93 -74 -170 -74 -280 0 -139 41 -250
132 -363 l36 -43 -24 -44 c-104 -188 -303 -335 -544 -401 -39 -11 -116 -18
-220 -21 -133 -4 -176 -2 -255 15 -326 67 -577 292 -657 586 -25 92 -22 251 6
351 53 192 194 406 482 736 l113 129 272 0 273 0 103 -116z m-995 -36 c-272
-333 -384 -533 -421 -751 l-12 -72 -766 -3 -766 -2 -6 23 c-11 44 -66 107
-121 138 l-55 31 0 273 0 273 32 13 c49 20 106 77 134 131 l24 48 1021 0 1020
0 -84 -102z m1941 -426 c139 -44 233 -151 263 -301 28 -145 -42 -309 -168
-389 -196 -124 -454 -52 -559 156 -27 53 -29 66 -29 167 0 101 2 114 29 167
88 174 280 257 464 200z"/>
<path d="M3242 3463 c-17 -7 -42 -57 -42 -85 0 -18 -10 -27 -47 -42 -101 -42
-173 -142 -172 -241 1 -145 88 -229 287 -274 140 -32 182 -61 182 -127 0 -80
-157 -124 -260 -71 -33 16 -51 34 -65 63 -41 85 -85 105 -138 64 -41 -32 -42
-65 -7 -136 36 -74 92 -126 164 -153 47 -17 52 -22 59 -59 10 -50 38 -76 82
-76 44 0 74 27 81 75 6 35 10 38 68 59 84 31 158 106 176 178 22 93 -6 179
-81 246 -53 49 -106 72 -221 97 -100 22 -129 35 -154 74 -48 73 61 161 173
140 37 -7 86 -49 125 -107 51 -76 168 -12 138 76 -24 75 -118 163 -192 181
-21 5 -28 13 -28 32 0 31 -25 79 -45 87 -19 7 -64 7 -83 -1z"/>
<path d="M1803 3675 c-11 -8 -23 -25 -27 -39 -3 -14 -24 -34 -51 -50 -27 -16
-55 -44 -71 -72 -23 -39 -26 -53 -22 -108 7 -107 61 -158 203 -191 38 -8 75
-20 82 -26 45 -38 -31 -83 -100 -60 -20 7 -39 21 -42 31 -3 10 -15 30 -26 44
-42 54 -139 21 -139 -48 0 -59 77 -157 134 -172 14 -3 27 -16 30 -30 9 -34 45
-64 78 -64 31 0 78 39 78 63 0 8 25 27 54 41 86 42 124 118 104 210 -14 70
-75 129 -155 151 -127 35 -138 40 -142 59 -7 42 79 64 112 29 8 -10 27 -30 41
-45 69 -76 170 7 122 101 -18 33 -79 89 -112 101 -13 5 -24 18 -24 28 0 49
-81 79 -127 47z"/>
<path d="M835 3345 c-30 -29 -32 -74 -6 -106 19 -23 24 -24 196 -27 194 -4
215 2 236 55 12 32 -4 79 -32 93 -10 6 -97 10 -194 10 -173 0 -176 0 -200 -25z"/>
<path d="M4435 3215 c-14 -13 -25 -30 -25 -37 0 -8 -17 -22 -37 -33 -55 -30
-93 -96 -93 -162 0 -64 17 -101 65 -140 l35 -29 -35 4 c-41 5 -85 -32 -85 -72
0 -58 60 -141 121 -167 16 -6 29 -18 29 -26 0 -27 47 -63 83 -63 33 0 77 33
77 57 0 6 25 25 55 42 65 37 95 86 95 156 0 97 -72 171 -189 196 -69 15 -91
26 -91 43 0 17 22 26 59 26 20 0 36 -11 60 -40 27 -34 37 -40 71 -40 45 0 80
35 80 81 0 36 -55 108 -103 134 -20 11 -37 27 -37 36 0 8 -10 25 -23 37 -32
30 -81 29 -112 -3z m40 -427 c61 -13 85 -25 85 -42 0 -18 -22 -26 -68 -26 -45
0 -52 5 -80 54 -20 34 -21 38 -5 32 10 -4 40 -12 68 -18z"/>
<path d="M4385 4700 c-259 -52 -440 -277 -438 -545 1 -110 26 -196 81 -281
122 -185 312 -276 529 -253 225 24 415 195 468 423 79 335 -193 671 -538 665
-34 -1 -80 -5 -102 -9z m200 -164 c145 -38 243 -138 281 -286 43 -169 -44
-354 -205 -433 -61 -30 -72 -32 -171 -32 -96 0 -110 3 -165 29 -76 38 -143
105 -181 181 -26 55 -29 69 -29 165 0 93 3 112 27 162 80 171 267 261 443 214z"/>
<path d="M4436 4514 c-14 -15 -26 -33 -26 -40 0 -7 -10 -19 -22 -25 -33 -17
-78 -60 -94 -91 -21 -41 -18 -124 7 -168 26 -46 85 -85 152 -100 112 -25 138
-50 72 -69 -49 -13 -90 2 -106 41 -16 40 -69 66 -103 50 -38 -17 -59 -56 -52
-96 9 -49 58 -111 105 -132 22 -11 41 -24 41 -30 0 -6 9 -23 21 -38 27 -35 86
-36 117 -3 12 13 22 28 22 34 0 6 20 21 45 33 64 31 97 78 103 145 9 108 -55
181 -186 212 -79 19 -102 34 -82 57 24 30 68 19 109 -26 30 -32 46 -41 71 -41
47 0 84 44 77 91 -8 44 -48 96 -97 124 -22 13 -40 29 -40 36 0 7 -11 24 -25
37 -32 33 -75 33 -109 -1z"/>
<path d="M1965 2084 c-11 -2 -45 -9 -75 -15 -82 -16 -185 -68 -505 -254 -256
-148 -291 -166 -300 -151 -75 125 -115 156 -205 156 -50 0 -67 -7 -195 -78
-172 -96 -200 -128 -200 -225 l0 -62 319 -565 c176 -311 335 -582 354 -602 80
-85 149 -79 336 28 169 96 191 122 191 223 0 58 -4 73 -38 130 -21 35 -37 64
-35 65 2 2 26 17 55 34 l52 31 483 -130 c266 -71 512 -134 547 -140 114 -20
244 2 357 59 103 52 1413 867 1446 899 57 56 82 123 83 218 0 62 -5 91 -23
130 -83 181 -299 226 -545 112 -40 -19 -254 -139 -477 -269 -438 -255 -444
-258 -458 -258 -5 0 -3 24 5 53 33 123 -34 268 -152 329 -21 11 -89 32 -150
45 -105 24 -311 89 -590 186 -123 43 -229 62 -280 51z m302 -228 c219 -79 360
-123 502 -158 158 -38 178 -48 202 -104 25 -56 13 -110 -33 -149 -30 -26 -37
-27 -103 -22 -40 3 -156 29 -275 63 -113 31 -219 59 -236 61 -43 7 -87 -32
-87 -76 0 -59 27 -73 273 -139 124 -33 250 -66 282 -72 168 -33 303 -28 408
14 31 13 241 131 465 261 225 131 444 254 488 273 152 66 269 54 308 -32 23
-52 23 -90 0 -141 -17 -38 -61 -66 -713 -467 -382 -235 -721 -440 -754 -455
-51 -24 -72 -28 -149 -28 -76 0 -116 8 -260 47 -491 136 -846 228 -875 228
-19 0 -59 -16 -100 -40 -38 -22 -72 -40 -77 -40 -4 0 -22 26 -39 58 -17 31
-96 172 -176 313 l-145 256 96 56 c53 30 194 111 314 181 366 210 397 215 684
112z m-1051 -755 c173 -305 314 -561 314 -567 0 -13 -222 -144 -245 -144 -20
0 -650 1120 -639 1137 14 22 217 133 238 130 13 -1 107 -160 332 -556z"/>
<path d="M815 1518 c-61 -36 -60 -104 2 -137 47 -24 103 14 103 70 0 53 -62
92 -105 67z"/>
</g>
</svg>
